<svg width="1920" height="1084" viewBox="0 0 1920 1084" fill="none" xmlns="http://www.w3.org/2000/svg">
<g filter="url(#filter0_f_2_11)">
<path fill-rule="evenodd" clip-rule="evenodd" d="M1212.47 479.889C1313.66 493.577 1440.32 511.001 1474.23 606.926C1510.52 709.58 1437.41 819.214 1359.37 895.399C1286.02 967.002 1183.27 1007.88 1082.2 989.637C990.937 973.161 930.931 892.479 888.417 810.382C852.964 741.923 832.682 655.036 875.821 591.101C913.296 535.56 999.434 572.393 1063.21 551.325C1118.33 533.115 1154.92 472.104 1212.47 479.889Z" fill="#A999CC"/>
<path d="M176.217 819.407C23.4627 954.56 199.931 1352.74 400.003 1264.86C600.074 1176.98 682.233 1329.26 682.233 1329.26C858.093 1362.59 860.568 1544.87 1218.42 1264.86C1576.26 984.863 1259.63 779.256 1003.26 748.952C851.875 696.679 657.606 671.831 653.955 845.165C649.39 1061.83 367.16 650.467 176.217 819.407Z" fill="#B1A2EE"/>
<path d="M1236.72 971.612C1117.8 1076.88 1080.97 1212.41 1236.72 1143.96C1392.47 1075.52 1456.43 1194.12 1456.43 1194.12C1593.33 1220.08 1586.05 1086.08 1761.94 1123.26C2108.5 1196.5 1850.18 910.836 1650.6 887.234C1532.75 846.52 1478.27 648.261 1326.08 742.134C1182.03 830.978 1385.36 840.029 1236.72 971.612Z" fill="#CDA2EE"/>
<path d="M1168.79 494.491C1016.03 629.643 1345.5 476.912 1423.86 554.943C1502.21 632.974 1358.44 844.338 1358.44 844.338C1534.3 877.672 1474.52 541.306 1700.45 589.034C2145.64 683.076 2053.74 282.214 1797.38 251.911C1645.99 199.638 1553.94 66.992 1358.44 187.516C1173.4 301.584 1359.73 325.551 1168.79 494.491Z" fill="#EEBDAD"/>
</g>
<defs>
<filter id="filter0_f_2_11" x="-240.38" y="-220.443" width="2611.21" height="1997.59" filterUnits="userSpaceOnUse" color-interpolation-filters="sRGB">
<feFlood flood-opacity="0" result="BackgroundImageFix"/>
<feBlend mode="normal" in="SourceGraphic" in2="BackgroundImageFix" result="shape"/>
<feGaussianBlur stdDeviation="179.414" result="effect1_foregroundBlur_2_11"/>
</filter>
</defs>
</svg>
