<svg width="1593" height="1084" viewBox="0 0 1593 1084" fill="none" xmlns="http://www.w3.org/2000/svg">
<g style="mix-blend-mode:soft-light">
<g style="mix-blend-mode:overlay" filter="url(#filter0_f_2_16)">
<path fill-rule="evenodd" clip-rule="evenodd" d="M1095.07 145.142C1149.2 163.317 1186.13 236.079 1176.29 292.118C1165.43 353.943 1054.18 361.934 1046.07 424.175C1035.85 502.545 1156.21 566.578 1130.75 641.429C1110.16 701.949 1015.47 707.856 951.575 701.991C891.929 696.516 859.117 622.626 800.348 611.099C734.676 598.219 648.56 683.881 604.299 633.88C558.476 582.114 644.393 503.22 643.771 434.215C643.356 388.277 593.624 350.795 601.338 305.502C609.112 259.855 650.27 228.38 684.214 196.744C717.288 165.919 750.78 122.804 796.062 124.014C843.139 125.272 863.235 199.464 910.21 202.784C975.734 207.413 1032.82 124.242 1095.07 145.142Z" fill="#E63E48"/>
</g>
<g style="mix-blend-mode:overlay" filter="url(#filter1_f_2_16)">
<path fill-rule="evenodd" clip-rule="evenodd" d="M1205.02 570.134C1259.15 588.309 1296.08 661.071 1286.24 717.111C1275.38 778.935 1164.14 786.927 1156.02 849.167C1145.81 927.537 1266.16 991.57 1240.7 1066.42C1220.12 1126.94 1125.42 1132.85 1061.53 1126.98C1001.88 1121.51 969.071 1047.62 910.301 1036.09C844.629 1023.21 758.514 1108.87 714.253 1058.87C668.43 1007.11 754.347 928.212 753.724 859.207C753.31 813.269 703.577 775.787 711.291 730.494C719.065 684.848 760.224 653.373 794.168 621.736C827.241 590.911 860.734 547.796 906.016 549.006C953.093 550.264 973.188 624.456 1020.16 627.776C1085.69 632.406 1142.78 549.235 1205.02 570.134Z" fill="#DE9A8B"/>
</g>
<g style="mix-blend-mode:overlay" filter="url(#filter2_f_2_16)">
<path fill-rule="evenodd" clip-rule="evenodd" d="M1285.37 211.954C1339.51 230.128 1376.43 302.891 1366.59 358.93C1355.73 420.755 1244.49 428.746 1236.38 490.987C1226.16 569.357 1346.51 633.39 1321.05 708.241C1300.47 768.761 1205.77 774.668 1141.88 768.803C1082.23 763.327 1049.42 689.438 990.653 677.911C924.981 665.031 838.866 750.693 794.605 700.692C748.781 648.925 834.698 570.032 834.076 501.027C833.661 455.088 783.929 417.607 791.643 372.314C799.417 326.667 840.575 295.192 874.519 263.556C907.593 232.73 941.085 189.615 986.368 190.826C1033.44 192.084 1053.54 266.276 1100.52 269.595C1166.04 274.225 1223.13 191.054 1285.37 211.954Z" fill="#FFCEB3"/>
</g>
<g style="mix-blend-mode:overlay" filter="url(#filter3_f_2_16)">
<path fill-rule="evenodd" clip-rule="evenodd" d="M691.007 667.158C748.222 686.368 787.249 763.273 776.848 822.503C765.373 887.847 647.795 896.294 639.219 962.078C628.421 1044.91 755.626 1112.59 728.717 1191.7C706.96 1255.67 606.874 1261.91 539.343 1255.71C476.301 1249.92 441.622 1171.83 379.506 1159.65C310.095 1146.03 219.077 1236.57 172.296 1183.72C123.864 1129.01 214.672 1045.62 214.014 972.689C213.576 924.136 161.012 884.521 169.165 836.649C177.382 788.403 220.884 755.136 256.761 721.698C291.717 689.118 327.116 643.548 374.977 644.827C424.734 646.157 445.973 724.574 495.624 728.082C564.878 732.975 625.217 645.069 691.007 667.158Z" fill="#A02C2C"/>
</g>
</g>
<defs>
<filter id="filter0_f_2_16" x="366.528" y="-100.322" width="1035.66" height="1028.4" filterUnits="userSpaceOnUse" color-interpolation-filters="sRGB">
<feFlood flood-opacity="0" result="BackgroundImageFix"/>
<feBlend mode="normal" in="SourceGraphic" in2="BackgroundImageFix" result="shape"/>
<feGaussianBlur stdDeviation="112.155" result="effect1_foregroundBlur_2_16"/>
</filter>
<filter id="filter1_f_2_16" x="476.481" y="324.67" width="1035.66" height="1028.4" filterUnits="userSpaceOnUse" color-interpolation-filters="sRGB">
<feFlood flood-opacity="0" result="BackgroundImageFix"/>
<feBlend mode="normal" in="SourceGraphic" in2="BackgroundImageFix" result="shape"/>
<feGaussianBlur stdDeviation="112.155" result="effect1_foregroundBlur_2_16"/>
</filter>
<filter id="filter2_f_2_16" x="556.833" y="-33.51" width="1035.66" height="1028.4" filterUnits="userSpaceOnUse" color-interpolation-filters="sRGB">
<feFlood flood-opacity="0" result="BackgroundImageFix"/>
<feBlend mode="normal" in="SourceGraphic" in2="BackgroundImageFix" result="shape"/>
<feGaussianBlur stdDeviation="112.155" result="effect1_foregroundBlur_2_16"/>
</filter>
<filter id="filter3_f_2_16" x="-66.2423" y="420.49" width="1069.08" height="1061.41" filterUnits="userSpaceOnUse" color-interpolation-filters="sRGB">
<feFlood flood-opacity="0" result="BackgroundImageFix"/>
<feBlend mode="normal" in="SourceGraphic" in2="BackgroundImageFix" result="shape"/>
<feGaussianBlur stdDeviation="112.155" result="effect1_foregroundBlur_2_16"/>
</filter>
</defs>
</svg>
